<svg width="60" height="60" viewBox="0 0 60 60" fill="none" xmlns="http://www.w3.org/2000/svg">
<rect width="60" height="60" rx="20" fill="#D9D9D9"/>
<path d="M42.3583 42.9111H37.0824V34.7659C37.0824 32.8237 37.0429 30.3238 34.3307 30.3238C31.5809 30.3238 31.1612 32.4376 31.1612 34.6236V42.9111H25.8834V26.1625H30.9514V28.444H31.0207C31.7294 27.1297 33.4517 25.7394 36.0253 25.7394C41.3704 25.7394 42.3603 29.2065 42.3603 33.7168V42.9111H42.3583ZM19.9246 23.8713C19.5219 23.8718 19.123 23.794 18.7508 23.6423C18.3786 23.4907 18.0405 23.2682 17.7558 22.9876C17.4711 22.707 17.2454 22.3738 17.0917 22.0071C16.938 21.6404 16.8593 21.2474 16.8601 20.8507C16.8605 20.2537 17.0406 19.6702 17.3777 19.174C17.7147 18.6778 18.1936 18.2912 18.7537 18.0631C19.3138 17.835 19.93 17.7756 20.5244 17.8924C21.1188 18.0093 21.6647 18.2971 22.093 18.7196C22.5213 19.142 22.8128 19.68 22.9307 20.2657C23.0485 20.8513 22.9874 21.4582 22.7551 22.0096C22.5228 22.5611 22.1297 23.0322 21.6255 23.3636C21.1214 23.695 20.5288 23.8716 19.9226 23.8713H19.9246ZM22.5695 42.9111H17.2778V26.1625H22.5714V42.9111H22.5695ZM45.0011 13H14.631C13.1739 13 12 14.131 12 15.5292V45.5709C12 46.969 13.1759 48.1 14.629 48.1H44.9932C46.4463 48.1 47.6341 46.969 47.6341 45.5709V15.5292C47.6341 14.131 46.4463 13 44.9932 13H44.9992H45.0011Z" fill="#37474F"/>
</svg>
