<svg width="60" height="60" viewBox="0 0 60 60" fill="none" xmlns="http://www.w3.org/2000/svg">
<rect width="60" height="60" rx="20" fill="#D9D9D9"/>
<path d="M50.3517 17.8365C48.8403 18.495 47.2376 18.9275 45.5965 19.1196C47.3262 18.1006 48.6208 16.4969 49.2391 14.6073C47.6158 15.5589 45.836 16.2258 43.9811 16.5866C42.7351 15.2734 41.0835 14.4025 39.2832 14.1093C37.4829 13.816 35.6347 14.1169 34.0258 14.9651C32.417 15.8132 31.1377 17.1612 30.3869 18.7994C29.6361 20.4376 29.4557 22.2743 29.8739 24.0239C26.5819 23.8614 23.3615 23.0187 20.4216 21.5506C17.4817 20.0825 14.8881 18.0219 12.8092 15.5024C12.0733 16.7474 11.6866 18.1626 11.6887 19.6032C11.6887 22.4307 13.1497 24.9287 15.3709 26.3912C14.0564 26.3504 12.7708 26.0008 11.6214 25.3713V25.4727C11.6217 27.3558 12.2833 29.1809 13.4938 30.6384C14.7043 32.0959 16.3894 33.0962 18.2632 33.4697C17.0429 33.7954 15.7634 33.8434 14.5216 33.6101C15.0499 35.231 16.0796 36.6486 17.4665 37.6643C18.8534 38.6801 20.5282 39.2432 22.2561 39.2748C20.5387 40.6034 18.5723 41.5855 16.4693 42.1651C14.3663 42.7446 12.168 42.9101 10 42.6522C13.7845 45.0496 18.1901 46.3224 22.6897 46.3182C37.9193 46.3182 46.2478 33.8909 46.2478 23.1132C46.2478 22.7622 46.2379 22.4073 46.2221 22.0602C47.8431 20.9062 49.2422 19.4765 50.3536 17.8385L50.3517 17.8365Z" fill="#37474F"/>
</svg>
