<svg width="60" height="60" viewBox="0 0 60 60" fill="none" xmlns="http://www.w3.org/2000/svg">
<rect width="60" height="60" rx="20" fill="#D9D9D9"/>
<path d="M29.7967 10C35.1755 10 35.8466 10.0195 37.9569 10.117C40.0653 10.2145 41.5005 10.5402 42.7636 11.0238C44.0702 11.5191 45.1709 12.1898 46.2716 13.2721C47.2782 14.2469 48.0571 15.426 48.5541 16.7275C49.0431 17.9696 49.3757 19.3853 49.4747 21.4621C49.5677 23.5408 49.5934 24.2019 49.5934 29.5C49.5934 34.7982 49.5736 35.4592 49.4747 37.5379C49.3757 39.6147 49.0431 41.0284 48.5541 42.2725C48.0586 43.5747 47.2794 44.7541 46.2716 45.7279C45.2816 46.7191 44.0846 47.4863 42.7636 47.9763C41.5025 48.4579 40.0653 48.7855 37.9569 48.883C35.8466 48.9747 35.1755 49 29.7967 49C24.418 49 23.7468 48.9805 21.6365 48.883C19.5282 48.7855 18.0929 48.4579 16.8299 47.9763C15.5081 47.4877 14.3108 46.7203 13.3219 45.7279C12.315 44.7533 11.5361 43.5741 11.0393 42.2725C10.5484 41.0303 10.2178 39.6147 10.1188 37.5379C10.0257 35.4592 10 34.7982 10 29.5C10 24.2019 10.0198 23.5408 10.1188 21.4621C10.2178 19.3834 10.5484 17.9716 11.0393 16.7275C11.5347 15.4252 12.3138 14.2458 13.3219 13.2721C14.3111 12.28 15.5083 11.5127 16.8299 11.0238C18.0929 10.5402 19.5262 10.2145 21.6365 10.117C23.7468 10.0253 24.418 10 29.7967 10ZM29.7967 19.75C27.1715 19.75 24.6538 20.7772 22.7975 22.6057C20.9412 24.4342 19.8984 26.9141 19.8984 29.5C19.8984 32.0859 20.9412 34.5658 22.7975 36.3943C24.6538 38.2228 27.1715 39.25 29.7967 39.25C32.4219 39.25 34.9396 38.2228 36.7959 36.3943C38.6522 34.5658 39.6951 32.0859 39.6951 29.5C39.6951 26.9141 38.6522 24.4342 36.7959 22.6057C34.9396 20.7772 32.4219 19.75 29.7967 19.75V19.75ZM42.6646 19.2625C42.6646 18.616 42.4039 17.996 41.9398 17.5389C41.4757 17.0818 40.8463 16.825 40.19 16.825C39.5337 16.825 38.9043 17.0818 38.4402 17.5389C37.9761 17.996 37.7154 18.616 37.7154 19.2625C37.7154 19.909 37.9761 20.529 38.4402 20.9861C38.9043 21.4432 39.5337 21.7 40.19 21.7C40.8463 21.7 41.4757 21.4432 41.9398 20.9861C42.4039 20.529 42.6646 19.909 42.6646 19.2625ZM29.7967 23.65C31.3718 23.65 32.8825 24.2663 33.9962 25.3634C35.11 26.4605 35.7357 27.9485 35.7357 29.5C35.7357 31.0515 35.11 32.5395 33.9962 33.6366C32.8825 34.7337 31.3718 35.35 29.7967 35.35C28.2216 35.35 26.711 34.7337 25.5972 33.6366C24.4834 32.5395 23.8577 31.0515 23.8577 29.5C23.8577 27.9485 24.4834 26.4605 25.5972 25.3634C26.711 24.2663 28.2216 23.65 29.7967 23.65V23.65Z" fill="#37474F"/>
</svg>
