<svg width="124" height="151" viewBox="0 0 124 151" fill="none" xmlns="http://www.w3.org/2000/svg">
<path d="M65.2699 35.3252C61.5541 34.8362 57.7767 35.146 54.1903 36.2339C50.6038 37.3219 47.2909 39.1628 44.473 41.6338C41.655 44.1047 39.397 47.1487 37.8499 50.5623C36.3027 53.9759 35.5021 57.6805 35.5015 61.4283C35.5015 63.2884 36.4983 65.0252 38.1118 65.9535C38.9067 66.4117 39.808 66.6528 40.7255 66.6528C41.643 66.6528 42.5443 66.4117 43.3392 65.9535C44.9493 65.0218 45.9461 63.2884 45.9461 61.4249C45.9434 59.3385 46.3525 57.272 47.1499 55.344C47.9473 53.4159 49.1173 51.6642 50.593 50.1892C52.0686 48.7142 53.8208 47.5449 55.7492 46.7484C57.6776 45.9518 59.7442 45.5436 61.8306 45.5472C63.9167 45.5436 65.983 45.9518 67.911 46.7485C69.839 47.5451 71.5908 48.7145 73.0659 50.1896C74.541 51.6647 75.7104 53.4165 76.507 55.3445C77.3037 57.2725 77.7119 59.3388 77.7083 61.4249C77.7083 69.3654 75.1665 77.097 70.4631 83.4926C70.33 83.6739 70.2338 83.8796 70.1802 84.0981C70.1265 84.3165 70.1164 84.5434 70.1504 84.7657C70.1845 84.9881 70.262 85.2016 70.3785 85.394C70.4951 85.5864 70.6484 85.7539 70.8297 85.8871C71.0113 86.0206 71.2174 86.117 71.4364 86.1706C71.6553 86.2243 71.8827 86.2343 72.1054 86.1999C72.3282 86.1655 72.542 86.0875 72.7346 85.9703C72.9271 85.8532 73.0947 85.6992 73.2276 85.5171C78.3649 78.535 81.1352 70.0933 81.1339 61.4249C81.1275 56.3073 79.0918 51.4011 75.4731 47.7824C71.8544 44.1637 66.9482 42.128 61.8306 42.1216C56.7124 42.128 51.8055 44.1635 48.1857 47.782C44.566 51.4005 42.5287 56.3066 42.5205 61.4249C42.5227 61.7412 42.441 62.0525 42.2838 62.3271C42.1266 62.6016 41.8996 62.8296 41.6257 62.988C41.3518 63.1463 41.0409 63.2293 40.7245 63.2285C40.4082 63.2278 40.0977 63.1432 39.8246 62.9835C39.5509 62.8259 39.3237 62.5987 39.1661 62.325C39.0084 62.0513 38.926 61.7407 38.9271 61.4249C38.9271 52.5183 44.0792 44.4339 52.1499 40.6726C56.1005 38.8287 60.4956 38.1512 64.8181 38.7198C69.1407 39.2884 73.211 41.0795 76.5504 43.8824C79.892 46.6834 82.3642 50.3804 83.6762 54.5385C84.9882 58.6967 85.0855 63.143 83.9566 67.3546C83.898 67.5721 83.883 67.799 83.9123 68.0223C83.9416 68.2457 84.0147 68.461 84.1273 68.6561C84.24 68.8511 84.39 69.022 84.5687 69.159C84.7475 69.296 84.9516 69.3964 85.1692 69.4545C85.6071 69.5695 86.0727 69.5066 86.4643 69.2793C86.8558 69.0521 87.1415 68.6791 87.2588 68.2418C88.2274 64.6221 88.4124 60.8373 87.8014 57.1404C87.1904 53.4435 85.7976 49.9195 83.716 46.8038C81.6343 43.6881 78.9118 41.0525 75.7302 39.0731C72.5486 37.0936 68.9813 35.8159 65.2665 35.3252H65.2699ZM61.8512 48.8084C58.5979 48.8156 55.48 50.1117 53.1802 52.4128C50.8804 54.7138 49.5861 57.8324 49.5807 61.0857C49.5838 62.2487 49.357 63.4009 48.9132 64.4759C48.4694 65.5509 47.8174 66.5275 46.9947 67.3495C46.172 68.1716 45.1949 68.8228 44.1196 69.2658C43.0442 69.7088 41.8919 69.9347 40.7289 69.9306C40.2747 69.9306 39.839 70.1111 39.5178 70.4323C39.1966 70.7535 39.0161 71.1892 39.0161 71.6434C39.0161 72.0977 39.1966 72.5334 39.5178 72.8546C39.839 73.1758 40.2747 73.3562 40.7289 73.3562C43.9822 73.3508 47.1008 72.0565 49.4019 69.7567C51.703 67.4569 52.999 64.339 53.0063 61.0857C53.0022 59.9227 53.2282 58.7704 53.6711 57.6951C54.1141 56.6198 54.7653 55.6426 55.5874 54.82C56.4094 53.9973 57.3861 53.3453 58.461 52.9015C59.536 52.4577 60.6882 52.2308 61.8512 52.234C63.0145 52.2308 64.167 52.4576 65.2423 52.9013C66.3177 53.3451 67.2948 53.997 68.1174 54.8196C68.9399 55.6421 69.5918 56.6192 70.0356 57.6946C70.4793 58.77 70.7061 59.9224 70.7029 61.0857C70.7035 65.5228 69.728 69.9057 67.8454 73.9237C65.9628 77.9416 63.2194 81.4961 59.8095 84.3353C59.6363 84.4793 59.4933 84.6561 59.3885 84.8555C59.2837 85.0549 59.2193 85.273 59.1989 85.4973C59.1786 85.7217 59.2026 85.9478 59.2698 86.1628C59.337 86.3778 59.4459 86.5775 59.5903 86.7503C59.882 87.0971 60.2992 87.3141 60.7505 87.3539C61.2019 87.3937 61.6506 87.253 61.9985 86.9627C65.7937 83.8026 68.8473 79.8464 70.943 75.3744C73.0387 70.9025 74.125 66.0244 74.1251 61.0857C74.1179 57.833 72.823 54.7154 70.5236 52.4148C68.2242 50.1141 65.1039 48.8174 61.8512 48.8084ZM61.8512 55.8583C58.9874 55.8583 56.6306 58.2219 56.6306 61.0857C56.6327 64.5809 55.4803 67.9789 53.3524 70.7516C51.2245 73.5244 48.2404 75.5166 44.8636 76.4187C44.646 76.4768 44.4419 76.5772 44.2632 76.7142C44.0844 76.8512 43.9344 77.0221 43.8217 77.2171C43.7091 77.4122 43.636 77.6275 43.6067 77.8509C43.5774 78.0742 43.5925 78.3011 43.651 78.5186C43.7682 78.9574 44.0549 79.3316 44.4481 79.5591C44.8412 79.7865 45.3086 79.8484 45.7474 79.7313C49.8508 78.6292 53.4764 76.2052 56.0631 72.8345C58.6497 69.4638 60.0532 65.3345 60.0562 61.0857C60.0562 60.0718 60.8372 59.2839 61.8512 59.2839C62.8651 59.2839 63.6496 60.0718 63.6496 61.0857C63.6505 65.3785 62.4447 69.585 60.1696 73.2254C57.8946 76.8657 54.642 79.7931 50.7831 81.6736C50.3775 81.8741 50.0678 82.2269 49.9214 82.655C49.7751 83.0831 49.8041 83.5517 50.002 83.9585C50.2013 84.3661 50.5542 84.678 50.9832 84.8257C51.4122 84.9735 51.8823 84.9449 52.2903 84.7464C56.7232 82.5828 60.4594 79.2179 63.0734 75.0347C65.6873 70.8516 67.0739 66.0184 67.0752 61.0857C67.0752 58.2185 64.715 55.8583 61.8512 55.8583Z" fill="#64B9B0"/>
<path fill-rule="evenodd" clip-rule="evenodd" d="M22.697 102.759C-0.0158096 81.2546 -0.995785 45.4098 20.5082 22.697C42.0121 -0.0158122 77.8569 -0.995784 100.57 20.5082C123.283 42.0121 124.262 77.8569 102.759 100.57C91.0352 112.952 75.0495 118.875 59.2531 118.217L70.95 122.561C84.0369 120.569 96.5833 114.365 106.389 104.007C129.792 79.2892 128.725 40.2798 104.007 16.8773C79.2892 -6.52515 40.2798 -5.45866 16.8773 19.2594C-5.02666 42.3947 -5.49491 78.0498 14.8024 101.71L26.4953 106.052C25.1937 105.02 23.9261 103.922 22.697 102.759Z" fill="#FECD04"/>
<path fill-rule="evenodd" clip-rule="evenodd" d="M34.8845 25.0811C54.9774 10.4636 83.1158 14.9023 97.7333 34.9953C112.351 55.0882 107.912 83.2266 87.8192 97.8441C67.7262 112.462 39.5878 108.023 24.9703 87.93C16.3086 76.0238 14.338 61.2927 18.3506 48.2237L11.3848 59.861C11.0334 70.5921 14.1214 81.5165 20.9271 90.8714C37.1691 113.197 68.4347 118.129 90.7606 101.887C113.087 85.6454 118.019 54.3798 101.777 32.0538C86.5746 11.1576 58.2117 5.49885 36.3358 18.1771L29.3771 29.8025C31.057 28.11 32.8939 26.5292 34.8845 25.0811Z" fill="#1A85D3"/>
<path d="M45.1994 136.706L41.2117 150.98H37.8375L35.1586 140.817L32.357 150.98L29.0032 151.001L25.1587 136.706H28.2262L30.7415 147.79L33.6453 136.706H36.8355L39.5758 147.729L42.1115 136.706H45.1994Z" fill="#64B9B0"/>
<path d="M55.8213 148.261H50.1363L49.1956 150.98H46.1895L51.3224 136.686H54.6557L59.7886 150.98H56.762L55.8213 148.261ZM55.0442 145.97L52.9788 139.999L50.9134 145.97H55.0442Z" fill="#64B9B0"/>
<path d="M69.7643 150.98L64.5701 144.62V150.98H61.7071V136.706H64.5701V143.107L69.7643 136.706H73.2203L67.3308 143.782L73.3839 150.98H69.7643Z" fill="#64B9B0"/>
<path d="M83.3243 150.98L78.13 144.62V150.98H75.2671V136.706H78.13V143.107L83.3243 136.706H86.7803L80.8908 143.782L86.9439 150.98H83.3243Z" fill="#64B9B0"/>
<path d="M98.5406 136.706V139.017H94.737V150.98H91.874V139.017H88.0704V136.706H98.5406Z" fill="#64B9B0"/>
</svg>
