<svg width="167" height="164" viewBox="0 0 167 164" fill="none" xmlns="http://www.w3.org/2000/svg">
<g opacity="0.2">
<path d="M94.4323 31.9539C89.5253 33.5185 85.0979 36.663 81.9338 41.2439C74.3437 52.2327 77.1015 67.3079 88.0903 74.8979C99.0791 82.488 114.154 79.7302 121.744 68.7415C129.334 57.7527 126.577 42.6775 115.588 35.0875C111.389 32.1871 106.585 30.8026 101.842 30.7889" stroke="white" stroke-width="5" stroke-miterlimit="10" stroke-linecap="round" stroke-linejoin="round"/>
<path d="M105.629 78.8361C107.3 71.6935 105.556 65.4139 103.535 61.4003C106.239 61.3345 108.862 60.0447 110.519 57.6452C113.25 53.6914 112.263 48.2976 108.31 45.5667C104.356 42.8357 98.9619 43.8225 96.231 47.7762C94.5736 50.1758 94.2959 53.0852 95.1915 55.6371C90.7225 55.1682 84.2132 55.7873 78.1436 59.8516" stroke="white" stroke-width="5" stroke-miterlimit="10" stroke-linecap="round" stroke-linejoin="round"/>
<path d="M114.593 115.597C113.09 113.633 111.263 111.847 109.109 110.359C98.12 102.769 83.0449 105.527 75.4548 116.516C67.8647 127.505 70.6225 142.58 81.6113 150.17C92.6001 157.76 107.675 155.002 115.265 144.013C119.88 137.333 120.667 129.137 118.109 122.053" stroke="white" stroke-width="5" stroke-miterlimit="10" stroke-linecap="round" stroke-linejoin="round"/>
<path d="M99.1775 154.127C100.849 146.984 99.1043 140.705 97.0837 136.691C99.7873 136.625 102.41 135.335 104.067 132.936C106.798 128.982 105.812 123.588 101.858 120.857C97.9041 118.126 92.5102 119.113 89.7793 123.067C88.1219 125.466 87.8442 128.376 88.7398 130.928C84.2708 130.459 77.7615 131.078 71.6919 135.142" stroke="white" stroke-width="5" stroke-miterlimit="10" stroke-linecap="round" stroke-linejoin="round"/>
<path d="M21.7697 108.756C32.5536 114.835 46.3646 111.808 53.5403 101.419C61.1304 90.4307 58.3726 75.3555 47.3838 67.7655C36.3951 60.1754 21.3199 62.9332 13.7298 73.9219C7.15681 83.4383 8.35667 95.9874 15.8898 104.091" stroke="white" stroke-width="5" stroke-miterlimit="10" stroke-linecap="round" stroke-linejoin="round"/>
<path d="M37.5256 111.543C39.1967 104.401 37.4524 98.121 35.4318 94.1074C38.1355 94.0416 40.7582 92.7519 42.4156 90.3524C45.1465 86.3986 44.1598 81.0047 40.206 78.2738C36.2522 75.5429 30.8584 76.5296 28.1274 80.4834C26.4701 82.8829 26.1923 85.7924 27.088 88.3443C22.6189 87.8754 16.1097 88.4944 10.04 92.5587" stroke="white" stroke-width="5" stroke-miterlimit="10" stroke-linecap="round" stroke-linejoin="round"/>
<path d="M86.0572 107.93L78.2505 89.0854L88.063 74.8791" stroke="white" stroke-width="5" stroke-miterlimit="10" stroke-linecap="round" stroke-linejoin="round"/>
<path d="M57.8628 88.4557L78.2506 89.0855" stroke="white" stroke-width="5" stroke-miterlimit="10" stroke-linecap="round" stroke-linejoin="round"/>
</g>
</svg>
