<svg width="60" height="60" viewBox="0 0 60 60" fill="none" xmlns="http://www.w3.org/2000/svg">
<rect width="60" height="60" rx="20" fill="#D9D9D9"/>
<path d="M23.9369 49.103C25.8374 49.6685 27.7577 50 29.7967 50C35.0471 50 40.0825 47.9455 43.7951 44.2886C47.5077 40.6316 49.5934 35.6717 49.5934 30.5C49.5934 27.9392 49.0814 25.4035 48.0865 23.0377C47.0916 20.6718 45.6334 18.5222 43.7951 16.7114C41.9568 14.9007 39.7744 13.4643 37.3726 12.4843C34.9707 11.5044 32.3965 11 29.7967 11C27.197 11 24.6227 11.5044 22.2208 12.4843C19.819 13.4643 17.6366 14.9007 15.7983 16.7114C12.0857 20.3684 10 25.3283 10 30.5C10 38.7875 15.2857 45.905 22.7491 48.713C22.5709 47.192 22.3927 44.6765 22.7491 42.941L25.0257 33.308C25.0257 33.308 24.4516 32.177 24.4516 30.383C24.4516 27.692 26.1541 25.6835 28.0942 25.6835C29.7967 25.6835 30.5886 26.912 30.5886 28.4915C30.5886 30.1685 29.4602 32.567 28.8861 34.868C28.5495 36.779 29.9155 38.456 31.8952 38.456C35.419 38.456 38.1509 34.751 38.1509 29.525C38.1509 24.845 34.7459 21.647 29.8561 21.647C24.2734 21.647 20.9872 25.742 20.9872 30.0515C20.9872 31.7285 21.5415 33.425 22.4521 34.5365C22.6303 34.6535 22.6303 34.8095 22.5709 35.102L21.9968 37.2275C21.9968 37.559 21.779 37.676 21.4425 37.442C18.9085 36.35 17.4436 32.801 17.4436 29.9345C17.4436 23.7725 21.878 18.176 30.4302 18.176C37.2403 18.176 42.5458 22.9925 42.5458 29.3885C42.5458 36.0965 38.3291 41.4785 32.2911 41.4785C30.3708 41.4785 28.4901 40.4645 27.817 39.275L26.4907 43.8965C26.0353 45.5735 24.7882 47.816 23.9369 49.1615V49.103V49.103Z" fill="#37474F"/>
</svg>
